<svg width="325" height="190" viewBox="0 0 325 190" fill="none" xmlns="http://www.w3.org/2000/svg">
<path d="M292.982 0H32.0525C29.3964 0 27.2432 2.13485 27.2432 4.76832V181.589C27.2432 184.222 29.3964 186.357 32.0525 186.357H292.982C295.638 186.357 297.792 184.222 297.792 181.589V4.76832C297.792 2.13485 295.638 0 292.982 0Z" fill="url(#paint0_radial_35_511)"/>
<path d="M291.839 2.06519H33.1958C31.0587 2.06519 29.3262 3.7829 29.3262 5.90181V180.455C29.3262 182.574 31.0587 184.291 33.1958 184.291H291.839C293.976 184.291 295.709 182.574 295.709 180.455V5.90181C295.709 3.7829 293.976 2.06519 291.839 2.06519Z" fill="#231F20"/>
<path d="M287.131 2.06519H37.8947C35.62 2.06874 33.4396 2.9667 31.8318 4.56209C30.224 6.15748 29.3201 8.32002 29.3184 10.5753V175.781C29.3201 178.036 30.224 180.199 31.8318 181.794C33.4396 183.39 35.62 184.288 37.8947 184.291H287.131C289.406 184.288 291.586 183.39 293.194 181.794C294.802 180.199 295.706 178.036 295.707 175.781V10.5753C295.706 8.32002 294.802 6.15748 293.194 4.56209C291.586 2.9667 289.406 2.06874 287.131 2.06519ZM294.663 175.781C294.663 176.762 294.468 177.734 294.09 178.64C293.712 179.546 293.157 180.37 292.458 181.064C291.758 181.758 290.928 182.308 290.014 182.684C289.1 183.06 288.12 183.253 287.131 183.253H37.8947C35.8973 183.25 33.9826 182.462 32.5707 181.061C31.1588 179.66 30.3648 177.762 30.3631 175.781V10.5753C30.3648 8.59493 31.1588 6.69607 32.5707 5.29527C33.9826 3.89446 35.8973 3.10608 37.8947 3.10307H287.131C288.12 3.10339 289.1 3.29692 290.014 3.67261C290.928 4.0483 291.758 4.59879 292.458 5.29265C293.157 5.98652 293.712 6.81016 294.09 7.71656C294.468 8.62297 294.663 9.59438 294.663 10.5753V175.781Z" fill="#494143"/>
<path d="M287.868 13.8525H36.8033V168.5H287.868V13.8525Z" fill="url(#paint1_radial_35_511)"/>
<path opacity="0.2" d="M188.965 2.06519H37.9037C35.629 2.06874 33.4486 2.9667 31.8408 4.56209C30.233 6.15748 29.3291 8.32002 29.3274 10.5753V175.781C29.3291 178.036 30.233 180.199 31.8408 181.794C33.4486 183.39 35.629 184.288 37.9037 184.291H134.496L188.965 2.06519Z" fill="url(#paint2_radial_35_511)"/>
<path d="M162.822 180.161H0V185.753C1.8983 187.052 3.95213 188.112 6.11424 188.909C9.23291 190.045 11.0261 189.91 14.5827 190H310.408C313.964 189.91 315.756 190.045 318.886 188.909C321.047 188.11 323.1 187.049 325 185.753V180.161H162.822Z" fill="url(#paint3_linear_35_511)"/>
<path d="M184.571 180.161H140.417C140.417 180.161 139.679 184.296 148.258 184.296H176.729C185.308 184.296 184.571 180.161 184.571 180.161Z" fill="url(#paint4_linear_35_511)"/>
<path d="M288.08 13.72H36.9354V168.68H288.08V13.72Z" fill="#EBEBEB"/>
<path d="M92.7673 13.5702H36.9082V168.796H92.7673V13.5702Z" fill="#C5C6CB"/>
<path d="M92.7673 13.5702H36.9082V28.6746H92.7673V13.5702Z" fill="#029FA0"/>
<path d="M89.0433 34.0452H40.6321V36.0611H89.0433V34.0452Z" fill="white"/>
<path d="M89.0433 80.3654H40.6321V82.3813H89.0433V80.3654Z" fill="white"/>
<path d="M79.2256 57.2052H40.6321V59.2212H79.2256V57.2052Z" fill="white"/>
<path d="M89.0433 45.793H40.6321V47.4729H89.0433V45.793Z" fill="white"/>
<path d="M76.5173 68.9531H40.6321V70.6331H76.5173V68.9531Z" fill="white"/>
<path d="M81.2569 39.7513H40.6321V41.7673H81.2569V39.7513Z" fill="white"/>
<path d="M86.335 62.9114H40.6321V64.9273H86.335V62.9114Z" fill="white"/>
<path d="M84.9808 51.4991H40.6321V53.5151H84.9808V51.4991Z" fill="white"/>
<path d="M81.2569 74.6592H40.6321V76.6751H81.2569V74.6592Z" fill="white"/>
<path d="M40.6321 90.4874H73.3112V92.5034H40.6321V90.4874Z" fill="white"/>
<path d="M86.335 102.235H40.6321V103.915H86.335V102.235Z" fill="white"/>
<path d="M81.2569 96.1935H40.6321V98.2094H81.2569V96.1935Z" fill="white"/>
<path d="M84.9808 107.941H40.6321V109.957H84.9808V107.941Z" fill="white"/>
<path d="M89.0537 18.9916H52.1221V22.2497H89.0537V18.9916Z" fill="white"/>
<path d="M217.74 77.1621H99.8252C98.9187 77.1621 98.1838 77.8907 98.1838 78.7895V161.798C98.1838 162.696 98.9187 163.425 99.8252 163.425H217.74C218.646 163.425 219.381 162.696 219.381 161.798V78.7895C219.381 77.8907 218.646 77.1621 217.74 77.1621Z" fill="white"/>
<path d="M208.378 88.9099H196.53C195.128 88.9099 193.991 90.0381 193.991 91.4299C193.991 92.8216 195.128 93.9498 196.53 93.9498H208.378C209.781 93.9498 210.918 92.8216 210.918 91.4299C210.918 90.0381 209.781 88.9099 208.378 88.9099Z" fill="#00D3D4"/>
<path d="M208.378 104.35H196.53C195.128 104.35 193.991 105.478 193.991 106.87C193.991 108.262 195.128 109.39 196.53 109.39H208.378C209.781 109.39 210.918 108.262 210.918 106.87C210.918 105.478 209.781 104.35 208.378 104.35Z" fill="#00D3D4"/>
<path d="M208.378 120.126H196.53C195.128 120.126 193.991 121.254 193.991 122.646C193.991 124.037 195.128 125.166 196.53 125.166H208.378C209.781 125.166 210.918 124.037 210.918 122.646C210.918 121.254 209.781 120.126 208.378 120.126Z" fill="#00D3D4"/>
<path d="M208.378 135.566H196.53C195.128 135.566 193.991 136.694 193.991 138.086C193.991 139.477 195.128 140.606 196.53 140.606H208.378C209.781 140.606 210.918 139.477 210.918 138.086C210.918 136.694 209.781 135.566 208.378 135.566Z" fill="#00D3D4"/>
<path d="M208.378 151.677H196.53C195.128 151.677 193.991 152.805 193.991 154.197C193.991 155.589 195.128 156.717 196.53 156.717H208.378C209.781 156.717 210.918 155.589 210.918 154.197C210.918 152.805 209.781 151.677 208.378 151.677Z" fill="#00D3D4"/>
<path d="M150.319 90.2526H125.605V91.2605H150.319V90.2526Z" fill="#C5C6CB"/>
<path d="M146.256 91.9325H125.605V92.9405H146.256V91.9325Z" fill="#C5C6CB"/>
<path d="M178.756 90.2526H162.506V91.2605H178.756V90.2526Z" fill="#C5C6CB"/>
<path d="M150.319 105.693H125.605V106.701H150.319V105.693Z" fill="#C5C6CB"/>
<path d="M146.256 107.371H125.605V108.379H146.256V107.371Z" fill="#C5C6CB"/>
<path d="M178.756 105.693H162.506V106.701H178.756V105.693Z" fill="#C5C6CB"/>
<path d="M150.319 121.468H125.605V122.476H150.319V121.468Z" fill="#C5C6CB"/>
<path d="M146.256 123.147H125.605V124.155H146.256V123.147Z" fill="#C5C6CB"/>
<path d="M178.756 121.468H162.506V122.476H178.756V121.468Z" fill="#C5C6CB"/>
<path d="M150.319 136.908H125.605V137.916H150.319V136.908Z" fill="#C5C6CB"/>
<path d="M146.256 138.587H125.605V139.595H146.256V138.587Z" fill="#C5C6CB"/>
<path d="M178.756 136.908H162.506V137.916H178.756V136.908Z" fill="#C5C6CB"/>
<path d="M150.319 152.684H125.605V153.692H150.319V152.684Z" fill="#C5C6CB"/>
<path d="M146.256 154.362H125.605V155.37H146.256V154.362Z" fill="#C5C6CB"/>
<path d="M178.756 152.684H162.506V153.692H178.756V152.684Z" fill="#C5C6CB"/>
<path d="M114.095 100.658H100.892V113.748H114.095V100.658Z" fill="#C5C6CB"/>
<path d="M114.095 116.433H100.892V129.524H114.095V116.433Z" fill="#C5C6CB"/>
<path d="M114.095 131.874H100.892V144.964H114.095V131.874Z" fill="#C5C6CB"/>
<path d="M114.095 147.649H100.892V160.74H114.095V147.649Z" fill="#C5C6CB"/>
<path d="M114.095 85.2178H100.892V98.3083H114.095V85.2178Z" fill="#C5C6CB"/>
<path d="M99.8252 77.1621H217.74C218.175 77.1621 218.593 77.3337 218.9 77.6392C219.208 77.9448 219.381 78.3591 219.381 78.7912V82.538H98.1838V78.7912C98.1838 78.3591 98.3568 77.9448 98.6646 77.6392C98.9724 77.3337 99.3899 77.1621 99.8252 77.1621V77.1621Z" fill="#383A4A"/>
<path d="M280.226 34.0452H226.922C225.562 34.0452 224.459 35.1381 224.459 36.4863V62.1485C224.459 63.4967 225.562 64.5896 226.922 64.5896H280.226C281.586 64.5896 282.688 63.4967 282.688 62.1485V36.4863C282.688 35.1381 281.586 34.0452 280.226 34.0452Z" fill="white"/>
<path d="M256.959 37.4016H226.49V39.4176H256.959V37.4016Z" fill="#ACACAC"/>
<path d="M216.919 34.0452H163.953C162.593 34.0452 161.491 35.1381 161.491 36.4863V62.1485C161.491 63.4967 162.593 64.5896 163.953 64.5896H216.919C218.279 64.5896 219.381 63.4967 219.381 62.1485V36.4863C219.381 35.1381 218.279 34.0452 216.919 34.0452Z" fill="white"/>
<path d="M193.991 37.4016H163.522V39.4176H193.991V37.4016Z" fill="#ACACAC"/>
<path d="M153.951 34.0452H100.646C99.2862 34.0452 98.1838 35.1381 98.1838 36.4863V62.1485C98.1838 63.4967 99.2862 64.5896 100.646 64.5896H153.951C155.31 64.5896 156.413 63.4967 156.413 62.1485V36.4863C156.413 35.1381 155.31 34.0452 153.951 34.0452Z" fill="white"/>
<path d="M130.684 37.4016H100.215V39.4176H130.684V37.4016Z" fill="#ACACAC"/>
<path d="M280.226 123.818H226.922C225.562 123.818 224.459 124.911 224.459 126.259V160.984C224.459 162.332 225.562 163.425 226.922 163.425H280.226C281.586 163.425 282.688 162.332 282.688 160.984V126.259C282.688 124.911 281.586 123.818 280.226 123.818Z" fill="white"/>
<path d="M288.105 13.5703H92.7673V28.6747H288.105V13.5703Z" fill="#C5C6CB"/>
<path d="M45.1461 25.4199C47.639 25.4199 49.6599 23.4162 49.6599 20.9445C49.6599 18.4728 47.639 16.4691 45.1461 16.4691C42.6531 16.4691 40.6322 18.4728 40.6322 20.9445C40.6322 23.4162 42.6531 25.4199 45.1461 25.4199Z" fill="white"/>
<path d="M226.624 41.8466H257.093V42.6611H226.624V41.8466Z" fill="#ACACAC"/>
<path d="M163.43 41.8466H193.898V42.6611H163.43V41.8466Z" fill="#ACACAC"/>
<path d="M226.624 46.7288H257.093V47.5433H226.624V46.7288Z" fill="#ACACAC"/>
<path d="M100.236 41.033H130.704V41.8475H100.236V41.033Z" fill="#ACACAC"/>
<path d="M226.624 43.474H257.093V44.2885H226.624V43.474Z" fill="#ACACAC"/>
<path d="M226.624 43.474H257.093V44.2885H226.624V43.474Z" fill="#ACACAC"/>
<path d="M163.43 43.474H193.898V44.2885H163.43V43.474Z" fill="#ACACAC"/>
<path d="M226.624 48.3562H257.093V49.1707H226.624V48.3562Z" fill="#ACACAC"/>
<path d="M100.236 42.6603H130.704V43.4748H100.236V42.6603Z" fill="#ACACAC"/>
<path d="M226.624 45.1014H257.093V45.916H226.624V45.1014Z" fill="#ACACAC"/>
<path d="M163.43 45.1014H193.898V45.916H163.43V45.1014Z" fill="#ACACAC"/>
<path d="M163.43 46.7288H193.898V47.5433H163.43V46.7288Z" fill="#ACACAC"/>
<path d="M226.624 49.9836H257.093V50.7982H226.624V49.9836Z" fill="#ACACAC"/>
<path d="M100.236 44.2877H130.704V45.1022H100.236V44.2877Z" fill="#ACACAC"/>
<path d="M254.097 17.8727H100.215V23.9816H254.097V17.8727Z" fill="white"/>
<path d="M253.892 18.0763H100.42V23.778H253.892V18.0763Z" stroke="#C5C6CB"/>
<path d="M278.959 17.7108H262.186C260.331 17.7108 258.826 19.2037 258.826 21.0453C258.826 22.8869 260.331 24.3797 262.186 24.3797H278.959C280.815 24.3797 282.319 22.8869 282.319 21.0453C282.319 19.2037 280.815 17.7108 278.959 17.7108Z" fill="white"/>
<path d="M280.226 74.1843H226.922C225.562 74.1843 224.459 75.2773 224.459 76.6254V114.707C224.459 116.055 225.562 117.148 226.922 117.148H280.226C281.586 117.148 282.688 116.055 282.688 114.707V76.6254C282.688 75.2773 281.586 74.1843 280.226 74.1843Z" fill="white"/>
<path d="M232.923 93.3167H229.538V115.805H232.923V93.3167Z" fill="#92A1FF"/>
<path d="M242.74 100.03H239.355V115.805H242.74V100.03Z" fill="#92A1FF"/>
<path d="M252.558 96.3375H249.173V115.805H252.558V96.3375Z" fill="#92A1FF"/>
<path d="M262.376 101.372H258.99V115.805H262.376V101.372Z" fill="#92A1FF"/>
<path d="M272.193 96.3375H268.808V115.805H272.193V96.3375Z" fill="#92A1FF"/>
<path d="M236.308 85.5966H232.923V115.805H236.308V85.5966Z" fill="#5168FF"/>
<path d="M246.126 88.9531H242.741V115.805H246.126V88.9531Z" fill="#5168FF"/>
<path d="M255.944 87.6105H252.558V115.805H255.944V87.6105Z" fill="#5168FF"/>
<path d="M265.761 84.5895H262.376V115.805H265.761V84.5895Z" fill="#5168FF"/>
<path d="M275.579 81.5687H272.193V115.805H275.579V81.5687Z" fill="#5168FF"/>
<path d="M226.491 77.2052H225.814V115.47H226.491V77.2052Z" fill="#C5C6CB"/>
<path d="M280.318 115.813V115.134H225.814V115.813H280.318Z" fill="#C5C6CB"/>
<path d="M263.053 151.677V143.622H254.928V151.677H263.053Z" fill="#ACACAC"/>
<path d="M281.334 161.411V143.622H264.407V161.411H281.334Z" fill="#C5C6CB"/>
<path d="M263.053 161.411V153.355H254.928V161.411H263.053Z" fill="#ACACAC"/>
<path d="M244.095 151.677V143.622H235.97V151.677H244.095Z" fill="#ACACAC"/>
<path d="M244.095 161.411V153.355H235.97V161.411H244.095Z" fill="#ACACAC"/>
<path d="M253.574 151.677V143.622H245.449V151.677H253.574Z" fill="#ACACAC"/>
<path d="M253.574 161.411V153.355H245.449V161.411H253.574Z" fill="#ACACAC"/>
<path d="M234.616 151.677V143.622H226.491V151.677H234.616Z" fill="#ACACAC"/>
<path d="M234.616 161.411V153.355H226.491V161.411H234.616Z" fill="#ACACAC"/>
<path d="M281.334 128.694H226.491V129.373H281.334V128.694Z" fill="#C5C6CB"/>
<path d="M248.496 124.997H226.491V126.005H248.496V124.997Z" fill="#C5C6CB"/>
<path d="M278.287 134.327H226.491V135.005H278.287V134.327Z" fill="#C5C6CB"/>
<path d="M271.178 130.102H226.491V130.781H271.178V130.102Z" fill="#C5C6CB"/>
<path d="M275.917 127.285H226.491V127.964H275.917V127.285Z" fill="#C5C6CB"/>
<path d="M279.98 135.735H226.491V136.414H279.98V135.735Z" fill="#C5C6CB"/>
<path d="M277.949 131.51H226.491V132.189H277.949V131.51Z" fill="#C5C6CB"/>
<path d="M278.964 137.143H226.491V137.822H278.964V137.143Z" fill="#C5C6CB"/>
<path d="M279.641 132.918H226.491V133.597H279.641V132.918Z" fill="#C5C6CB"/>
<path d="M278.626 139.929H226.491V140.608H278.626V139.929Z" fill="#C5C6CB"/>
<defs>
<radialGradient id="paint0_radial_35_511" cx="0" cy="0" r="1" gradientUnits="userSpaceOnUse" gradientTransform="translate(115.741 27.9535) scale(116.412 115.541)">
<stop stop-color="#DAD8DB"/>
<stop offset="1" stop-color="#868686"/>
</radialGradient>
<radialGradient id="paint1_radial_35_511" cx="0" cy="0" r="1" gradientUnits="userSpaceOnUse" gradientTransform="translate(114.837 91.1762) scale(150.298 149.08)">
<stop stop-color="#6E7072"/>
<stop offset="0.63" stop-color="#626566"/>
<stop offset="1" stop-color="#595C5D"/>
</radialGradient>
<radialGradient id="paint2_radial_35_511" cx="0" cy="0" r="1" gradientUnits="userSpaceOnUse" gradientTransform="translate(346.046 105.387) scale(253.749 251.654)">
<stop stop-color="white"/>
<stop offset="0.09" stop-color="white" stop-opacity="0.949"/>
<stop offset="0.25" stop-color="white" stop-opacity="0.831"/>
<stop offset="0.45" stop-color="white" stop-opacity="0.631"/>
<stop offset="0.7" stop-color="white" stop-opacity="0.361"/>
<stop offset="0.99" stop-color="white" stop-opacity="0.02"/>
<stop offset="1" stop-color="white" stop-opacity="0"/>
</radialGradient>
<linearGradient id="paint3_linear_35_511" x1="162.5" y1="189.882" x2="162.5" y2="182.798" gradientUnits="userSpaceOnUse">
<stop stop-color="#6A6C6D"/>
<stop offset="0.29" stop-color="#818484"/>
<stop offset="1" stop-color="#B7BCB9"/>
</linearGradient>
<linearGradient id="paint4_linear_35_511" x1="140.401" y1="182.228" x2="184.587" y2="182.228" gradientUnits="userSpaceOnUse">
<stop stop-color="#6A6C6D"/>
<stop offset="0.04" stop-color="#8B8F8E"/>
<stop offset="0.1" stop-color="#AEB4B0"/>
<stop offset="0.15" stop-color="#C9D1CB"/>
<stop offset="0.21" stop-color="#DCE5DF"/>
<stop offset="0.26" stop-color="#E8F2EA"/>
<stop offset="0.32" stop-color="#ECF6EE"/>
<stop offset="0.7" stop-color="#ECF6EE"/>
<stop offset="0.74" stop-color="#E4EEE7"/>
<stop offset="0.8" stop-color="#D0D8D2"/>
<stop offset="0.88" stop-color="#AEB4B0"/>
<stop offset="0.96" stop-color="#7F8382"/>
<stop offset="1" stop-color="#6A6C6D"/>
</linearGradient>
</defs>
</svg>
